<?xml version="1.0" standalone="no"?>
<!DOCTYPE svg PUBLIC "-//W3C//DTD SVG 20010904//EN"
 "http://www.w3.org/TR/2001/REC-SVG-20010904/DTD/svg10.dtd">
<svg version="1.0" xmlns="http://www.w3.org/2000/svg"
 width="800.000000pt" height="800.000000pt" viewBox="0 0 800.000000 800.000000"
 preserveAspectRatio="xMidYMid meet">

<g transform="translate(0.000000,800.000000) scale(0.100000,-0.100000)"
fill="#000000" stroke="none">
<path d="M3685 7984 c-849 -84 -1559 -369 -2200 -882 -154 -124 -463 -433
-587 -587 -487 -608 -770 -1283 -870 -2075 -21 -167 -18 -759 5 -930 103 -768
388 -1440 865 -2035 124 -154 433 -463 587 -587 597 -479 1273 -765 2040 -865
201 -26 759 -26 960 0 823 107 1549 432 2158 967 741 650 1204 1527 1334 2525
26 201 26 770 0 965 -103 768 -389 1441 -865 2035 -124 154 -433 463 -587 587
-533 427 -1150 711 -1799 828 -255 45 -333 52 -671 55 -181 1 -348 1 -370 -1z
m720 -110 c659 -67 1287 -300 1833 -681 355 -247 718 -610 965 -965 382 -548
610 -1161 683 -1841 34 -308 19 -729 -36 -1054 -94 -552 -320 -1103 -647
-1571 -247 -355 -610 -718 -965 -965 -548 -382 -1161 -610 -1841 -683 -204
-22 -580 -22 -784 0 -680 73 -1293 301 -1841 683 -355 247 -718 610 -965 965
-382 548 -610 1161 -683 1841 -22 204 -22 580 0 784 73 680 301 1293 683 1841
247 355 610 718 965 965 771 537 1697 777 2633 681z"/>
<path d="M3195 6629 l-40 -41 65 7 c36 4 144 13 240 19 l175 11 -80 19 c-45
11 -132 21 -200 23 l-120 4 -40 -42z"/>
<path d="M3640 6648 c0 -24 1 -24 138 -36 361 -33 581 -171 706 -444 89 -193
106 -477 45 -717 -68 -266 -261 -468 -512 -536 -124 -33 -63 -62 98 -45 177
18 285 48 405 112 216 114 363 301 427 546 35 132 37 325 5 454 -75 303 -275
509 -600 618 -123 41 -266 60 -504 67 l-208 6 0 -25z"/>
<path d="M3034 6469 l-48 -49 50 -48 c58 -56 117 -138 164 -231 38 -75 80
-234 80 -300 l0 -46 146 146 146 146 -22 39 c-83 148 -269 311 -431 378 l-36
15 -49 -50z"/>
<path d="M2719 5394 c-49 -89 -142 -216 -235 -320 l-64 -71 29 -27 29 -28 82
98 c82 100 173 228 228 320 l30 52 -28 27 -28 27 -43 -78z"/>
<path d="M3476 4981 l-200 -200 19 -40 c22 -50 12 -82 -34 -106 -31 -15 -31
-15 -11 -35 11 -11 20 -33 20 -50 0 -24 -7 -35 -34 -51 -44 -26 -57 -62 -47
-135 13 -97 -14 -170 -75 -199 -61 -29 -177 -17 -293 29 l-94 38 -45 -45 -45
-46 42 -56 c103 -137 306 -303 493 -405 l73 -40 171 171 171 171 -35 65 c-32
61 -35 74 -39 172 -6 169 -6 171 18 197 12 13 28 24 35 24 18 0 44 40 44 68 0
14 -13 36 -31 53 -18 16 -30 31 -28 32 2 2 23 9 47 16 58 16 71 45 48 104 -21
57 -21 103 2 123 11 9 45 27 77 40 76 30 110 63 101 97 -3 14 -32 56 -63 94
-32 38 -65 79 -73 91 -15 22 -18 19 -214 -177z"/>
<path d="M6133 5024 c-3 -8 -4 -16 -2 -17 5 -4 151 14 147 18 -2 1 -34 5 -71
8 -55 5 -69 4 -74 -9z"/>
<path d="M4170 4600 l0 -120 36 -56 c38 -60 103 -193 191 -394 180 -411 315
-580 569 -710 256 -131 624 -158 902 -64 64 21 182 76 127 59 -84 -26 -143
-35 -241 -35 -129 0 -228 21 -325 71 -207 104 -327 241 -494 564 -242 467
-399 651 -661 771 -108 51 -104 54 -104 -86z"/>
<path d="M5753 4713 c-13 -2 -23 -6 -23 -9 0 -14 33 -190 36 -193 2 -2 4 20 4
50 0 30 7 78 14 107 15 55 15 54 -31 45z"/>
<path d="M1999 4577 c-64 -79 -162 -233 -185 -293 l-17 -45 69 -70 c37 -38 71
-65 74 -61 4 4 14 34 24 67 21 69 97 226 150 309 20 31 36 60 36 63 0 10 -82
93 -91 93 -5 0 -31 -28 -60 -63z"/>
<path d="M3130 2706 l0 -246 30 0 30 0 0 74 0 74 103 4 c84 3 109 8 143 27
107 60 113 212 11 279 -38 25 -49 27 -179 30 l-138 4 0 -246z m270 169 c36
-19 50 -43 50 -89 0 -87 -44 -116 -174 -116 l-86 0 0 110 0 110 90 0 c62 0
100 -5 120 -15z"/>
<path d="M3710 2705 l0 -245 30 0 30 0 0 245 0 245 -30 0 -30 0 0 -245z"/>
<path d="M3990 2705 l0 -245 175 0 175 0 0 30 0 30 -145 0 -145 0 0 80 0 80
125 0 125 0 0 30 0 30 -125 0 -125 0 0 75 0 75 140 0 140 0 0 30 0 30 -170 0
-170 0 0 -245z"/>
<path d="M4540 2705 l0 -245 165 0 165 0 0 30 0 30 -135 0 -135 0 0 215 0 215
-30 0 -30 0 0 -245z"/>
<path d="M4608 1969 c4 -345 3 -349 -69 -349 -28 0 -46 7 -62 23 -12 12 -78
156 -147 320 -68 163 -126 297 -129 297 -3 0 -62 -136 -131 -301 -132 -319
-145 -339 -206 -339 -64 0 -64 1 -64 314 0 257 2 284 18 298 9 9 26 18 37 21
11 2 -27 5 -85 4 -58 0 -95 -2 -83 -4 50 -10 53 -27 53 -318 0 -291 -3 -308
-53 -318 -12 -2 66 -5 173 -5 163 -2 191 0 170 11 -36 18 -35 42 2 132 l34 80
126 3 125 3 33 -91 c34 -95 34 -115 -2 -130 -15 -6 47 -9 177 -8 141 0 190 3
168 9 -21 6 -35 17 -38 32 -3 12 -4 125 -3 251 l3 228 249 -266 c137 -146 250
-266 250 -266 1 0 0 135 -2 301 -4 330 -2 343 55 352 16 2 -17 4 -72 5 -78 0
-93 -2 -68 -9 21 -6 35 -17 38 -32 3 -12 4 -125 3 -250 l-3 -228 -249 265
c-136 146 -249 266 -250 266 0 0 0 -135 2 -301z m-349 26 l48 -130 -110 -3
c-60 -1 -112 0 -115 3 -3 3 15 58 41 123 25 64 51 131 58 147 13 36 8 45 78
-140z"/>
<path d="M5241 2210 c1 -30 4 -44 6 -30 9 46 19 50 129 50 l104 0 0 -283 c0
-304 -3 -320 -53 -330 -12 -2 25 -5 83 -5 75 0 97 2 76 8 -16 5 -33 15 -37 22
-5 7 -9 142 -9 301 l0 287 97 0 c76 0 100 -4 115 -17 17 -15 18 -14 18 18 l0
34 -265 0 -265 0 1 -55z"/>
<path d="M5980 2260 c-96 -3 -165 -7 -153 -8 50 -5 53 -25 53 -317 0 -291 -3
-308 -53 -318 -12 -2 64 -5 169 -6 l191 -1 22 56 c11 31 21 58 21 61 0 3 -17
-14 -39 -38 l-39 -44 -106 -3 -106 -4 0 141 0 141 83 0 c90 0 101 -4 116 -40
8 -20 10 -9 10 50 -1 41 -3 68 -6 60 -16 -42 -34 -50 -120 -50 l-83 0 0 145 0
145 103 0 c110 0 128 -7 140 -55 2 -11 5 6 6 38 1 49 -2 57 -16 55 -10 -1 -97
-5 -193 -8z"/>
<path d="M1837 2253 c50 -10 53 -27 53 -318 0 -291 -3 -308 -53 -318 -12 -2
25 -5 83 -5 75 0 97 2 76 8 -16 5 -33 15 -37 22 -5 7 -9 142 -9 301 l0 287 74
0 c84 0 118 -18 142 -76 41 -98 -17 -214 -108 -214 -14 0 -33 -3 -42 -6 -13
-5 -12 -9 9 -26 13 -10 59 -69 101 -129 103 -149 125 -163 263 -167 93 -2 103
-1 81 10 -36 19 -35 43 2 133 l34 80 126 3 125 3 33 -91 c34 -95 34 -115 -2
-130 -15 -6 83 -9 282 -7 345 3 362 6 445 79 67 59 97 125 103 223 6 109 -21
180 -92 251 -81 79 -113 87 -351 90 -110 1 -190 0 -178 -3 50 -10 53 -27 53
-318 0 -310 -1 -315 -71 -315 -28 0 -46 7 -62 23 -12 12 -78 156 -147 320 -68
163 -126 297 -129 297 -3 0 -60 -130 -125 -288 -125 -301 -138 -330 -161 -338
-26 -10 -72 34 -163 155 -86 114 -89 120 -66 125 43 11 93 65 109 118 29 100
-17 192 -110 217 -22 6 -101 10 -175 10 -74 -1 -125 -4 -113 -6z m1568 -47
c97 -46 138 -118 143 -253 5 -110 -12 -171 -63 -230 -58 -68 -104 -83 -250
-83 l-125 0 0 295 0 295 123 0 c107 0 128 -3 172 -24z m-706 -211 l48 -130
-110 -3 c-60 -1 -112 0 -115 3 -3 3 15 58 41 123 25 64 51 131 58 147 13 36 8
45 78 -140z"/>
<path d="M4106 1214 c-10 -39 -65 -93 -107 -105 -38 -12 -48 -22 -30 -34 5 -3
13 -20 17 -37 l7 -33 22 50 c24 56 97 127 145 141 l30 9 -39 16 c-39 17 -39
17 -45 -7z"/>
<path d="M2800 1205 c0 -11 12 -15 45 -15 33 0 45 4 45 15 0 11 -12 15 -45 15
-33 0 -45 -4 -45 -15z"/>
<path d="M5120 1205 c0 -11 12 -15 45 -15 33 0 45 4 45 15 0 11 -12 15 -45 15
-33 0 -45 -4 -45 -15z"/>
</g>
</svg>
